<svg xmlns="http://www.w3.org/2000/svg" width="215px" height="87px" viewBox="0 0 215 87">
<polygon fill="#332E2E" points="210.528,87 207.414,21.134 6.273,30.846 8.924,87 "/>
<polygon fill="#995590" points="210.097,87 200.092,0 0,23.296 7.303,87 "/>
<polygon fill="#71BACF" points="210.938,87 215,10.654 16.258,0.065 11.627,87 "/>
<polygon fill="#332E2E" points="210.528,87 207.414,21.134 6.273,30.846 8.924,87 "/>
<g>
	<polygon fill="#FFFFFF" points="89.44,12.301 89.218,12.301 85.733,12.828 85.733,13.641 86.618,14.05 86.618,19.157   85.775,19.548 85.775,20.459 90.283,20.459 90.283,19.548 89.44,19.157  "/>
	<path fill="#FFFFFF" d="M106.827,19.249v-4.809c0-1.456-0.757-2.123-2.092-2.123c-1.074,0-2.029,0.402-2.74,1.048h-0.086v-1.057   h-0.222l-3.365,0.527v0.813l0.885,0.408v5.193l-0.841,0.388v0.822h4.462v-0.822l-0.799-0.388v-5.032   c0.319-0.129,0.604-0.201,0.996-0.201c0.717,0,0.981,0.302,0.981,1.106v4.126l-0.801,0.388v0.822h4.468v-0.822L106.827,19.249z"/>
	<path fill="#FFFFFF" d="M84.774,9.051h-0.223l-3.482,0.527v0.812l0.882,0.408v1.849c-0.319-0.229-0.75-0.33-1.185-0.33   c-2.104,0-3.958,1.149-3.958,4.351c0,3.044,1.816,3.964,3.267,3.964c0.986,0,1.666-0.439,1.998-0.861h0.087v0.827l0.224,0.001   l3.228-0.355v-0.779l-0.838-0.46V9.051z M81.951,18.966c-0.179,0.072-0.316,0.154-0.722,0.154c-0.912,0-1.453-0.762-1.453-2.725   c0-2.24,0.542-2.897,1.369-2.897c0.479,0,0.603,0.129,0.806,0.287V18.966z"/>
	<path fill="#FFFFFF" d="M26.313,17.927V13.99h1.649v-1.501h-1.649v-1.866l-2.808,0.368v1.499l-1.125,0.163v1.338h1.125v4.257   c0,1.68,0.826,2.37,2.392,2.37c0.827,0,1.723-0.211,2.152-0.46v-1.118c-0.191,0.033-0.451,0.066-0.726,0.066   C26.766,19.105,26.313,18.702,26.313,17.927z"/>
	<path fill="#FFFFFF" d="M41.152,12.317c-2.364,0-4.007,1.522-4.007,4.136c0,2.699,1.498,4.177,4.225,4.177   c1.465,0,2.607-0.633,3.107-1.134V18.63c-0.551,0.172-1.117,0.272-2.132,0.272c-1.355,0-2.223-0.714-2.312-2.192h4.644   C44.677,13.378,43.531,12.317,41.152,12.317z M40.036,15.624c0.063-2.081,0.398-2.346,1.072-2.346c0.514,0,0.924,0.553,0.924,2.265   L40.036,15.624z"/>
	<path fill="#FFFFFF" d="M76.87,14.854V12.36c-0.087-0.028-0.261-0.043-0.392-0.043c-0.871,0-1.49,0.651-1.954,1.714h-0.087v-1.729   h-0.222l-3.381,0.533v0.813l0.884,0.408v5.193l-0.843,0.39v0.82h4.658v-0.82l-0.993-0.39l-0.001-4.179   c0.45-0.215,0.954-0.287,1.664-0.287C76.435,14.782,76.71,14.811,76.87,14.854z"/>
	<path fill="#FFFFFF" d="M69.872,14.724c0-1.78-1.363-2.407-3.481-2.407c-1.393,0-2.382,0.374-3.121,0.604v2.082h1.365l0.499-1.437   c0.16-0.016,0.461-0.034,0.689-0.034c1.015,0,1.23,0.325,1.23,1.345v0.933l-1.43,0.259c-1.741,0.359-2.837,0.713-2.837,2.335   c0,1.321,0.816,2.227,2.224,2.227c0.986,0,2.016-0.424,2.367-1.135h0.073c0.122,0.856,0.863,1.12,1.69,1.12   c0.638,0,1.313-0.177,1.573-0.315v-0.691l-0.841-0.39V14.724z M67.054,18.8c-0.145,0.157-0.353,0.301-0.644,0.301   c-0.508,0-0.83-0.253-0.83-1.072c0-0.76,0.341-1.167,0.952-1.224l0.522-0.06V18.8z"/>
	<path fill="#FFFFFF" d="M97.363,14.724c0-1.78-1.363-2.407-3.481-2.407c-1.393,0-2.382,0.374-3.121,0.604v2.082h1.365l0.499-1.437   c0.16-0.016,0.461-0.034,0.689-0.034c1.015,0,1.23,0.325,1.23,1.345v0.933l-1.431,0.259c-1.741,0.359-2.836,0.713-2.836,2.335   c0,1.321,0.815,2.227,2.223,2.227c0.986,0,2.016-0.424,2.367-1.135h0.073c0.122,0.856,0.864,1.12,1.69,1.12   c0.639,0,1.314-0.177,1.573-0.315v-0.691l-0.841-0.39V14.724z M94.545,18.8c-0.145,0.157-0.353,0.301-0.645,0.301   c-0.508,0-0.83-0.253-0.83-1.072c0-0.76,0.341-1.167,0.953-1.224l0.522-0.06V18.8z"/>
	<path fill="#FFFFFF" d="M61.959,12.303h-0.222l-3.485,0.526v0.631l0.886,0.409v4.816c-0.224,0.114-0.433,0.187-0.786,0.187   c-0.667,0-1.091-0.159-1.091-1.065v-5.504h-0.223l-3.392,0.526v0.631l0.796,0.409v4.243c0,1.378,0.772,2.515,2.368,2.515   c1.073,0,1.91-0.505,2.417-1.137h0.087l0.002,1.103l0.224,0.001l3.297-0.355v-0.688l-0.879-0.46V12.303z"/>
	<path fill="#FFFFFF" d="M36.654,14.439c0-1.456-0.757-2.123-2.092-2.123c-1.073,0-1.938,0.402-2.649,1.048h-0.086v-4.32h-0.223   l-3.456,0.527v0.813l0.885,0.408v8.456l-0.841,0.388v0.822h4.463v-0.822l-0.799-0.388v-5.032c0.319-0.129,0.604-0.201,0.996-0.201   c0.717,0,0.981,0.302,0.981,1.106v4.126l-0.8,0.388v0.822H37.5v-0.822l-0.846-0.388V14.439z"/>
	<circle fill="#FFFFFF" cx="87.975" cy="10.449" r="1.485"/>
	<path fill="#FFFFFF" d="M51.156,18.635h-2.701c-0.397,0-0.607-0.143-0.607-0.416c0-0.202,0.137-0.413,0.312-0.564   c0.386,0.092,0.807,0.14,1.252,0.14c2.028,0,3.491-0.947,3.491-2.658c0-0.657-0.229-1.219-0.742-1.63v-0.105l1.167,0.392h0.177   v-1.587h-0.153l-1.823,0.576h-0.151c-0.522-0.292-1.131-0.463-1.964-0.463c-2.034,0-3.507,0.98-3.507,2.738   c0,1.01,0.55,1.809,1.364,2.268v0.124c-0.696,0.266-1.332,0.91-1.332,1.665c0,0.778,0.485,1.456,1.167,1.659v0.107   c-0.894,0.187-1.715,0.539-1.715,1.399c0,1.063,1.382,1.797,3.877,1.797c3.101,0,4.501-1.187,4.501-3.076   C53.768,19.448,52.907,18.635,51.156,18.635z M49.413,13.312c0.573,0,0.854,0.361,0.854,1.744c0,1.383-0.287,1.658-0.854,1.658   c-0.568,0-0.846-0.509-0.846-1.658C48.566,13.907,48.839,13.312,49.413,13.312z M49.267,23.038c-1.328,0-1.63-0.461-1.63-1.013   c0-0.344,0.101-0.559,0.304-0.798h2.631c0.653,0,0.951,0.268,0.951,0.681C51.523,22.588,50.846,23.038,49.267,23.038z"/>
</g>
<path fill="#FFFFFF" d="M93.612,42.834l-2.519,0.479c-0.497,0.033-0.852,0.402-0.816,0.838c0.036,0.437,0.426,0.737,0.887,0.737  l1.525-0.067v21.606c0,0.532,0.426,0.957,0.958,0.957s0.958-0.425,0.958-0.957V43.792c0-0.248-0.106-0.497-0.284-0.674  C94.108,42.94,93.86,42.834,93.612,42.834z M116.451,49.22c-2.837,0-5.463,1.703-6.42,2.378c-0.746-1.562-2.342-2.378-4.577-2.378  c-2.59,0-4.435,1.064-5.676,1.916v-0.747c0-0.531-0.425-0.957-0.958-0.957c-0.533,0-0.958,0.426-0.958,0.957v16.04  c0,0.532,0.426,0.958,0.958,0.958c0.532,0,0.958-0.426,0.958-0.958V52.944c0.993-0.603,3.122-1.809,5.676-1.809  c1.207,0,2.058,0.283,2.554,0.851c0.462,0.497,0.675,1.278,0.675,2.271v12.171c0,0.532,0.426,0.958,0.958,0.958  s0.958-0.426,0.958-0.958V54.258c0-0.391-0.035-0.781-0.106-1.136c0.636-0.317,2.903-1.986,5.959-1.986  c1.207,0,2.094,0.283,2.592,0.851c0.425,0.497,0.638,1.278,0.638,2.271v12.171c0,0.532,0.427,0.958,0.957,0.958  c0.532,0,0.959-0.426,0.959-0.958V54.258C121.597,50.994,119.787,49.22,116.451,49.22z M88.475,49.432  c-0.532,0-0.958,0.426-0.958,0.957V64.05c-0.887,0.532-3.157,1.703-5.748,1.703c-1.561,0-2.625-0.391-3.157-1.064  c-0.249-0.32-0.532-0.852-0.532-2.059V50.367c0-0.519-0.423-0.934-0.953-0.934c-0.422,0-0.775,0.276-0.916,0.622  c-0.646,1.909-3.701,4.562-8.396,4.562c-1.742,0-2.47-0.987-2.47-1.93c0-1.654,1.833-1.841,3.225-1.01  c0.455,0.271,1.052,0.206,1.297-0.249c0.246-0.456,0.07-1.052-0.386-1.297c-1.122-0.596-2.454-0.912-3.961-0.912  c-2.068,0-3.961,0.736-5.329,2.068c-0.771,0.771-1.402,2.033-1.823,3.154c-0.42,1.192-0.666,2.56-0.666,4.103  c0,1.612,0.176,2.874,0.526,3.926c0.315,1.121,0.841,2.067,1.507,2.84c1.367,1.577,3.365,2.418,5.749,2.418  c2.103,0,3.996-0.736,5.398-2.068c0.771-0.771,1.368-1.752,1.788-2.874c0.456-1.192,0.666-2.698,0.666-4.241  c0-1.362-0.101-2.442-0.331-3.356c1.483-0.68,3.154-2.186,3.157-2.189v9.631c0,0.852,0.106,2.13,0.923,3.193  c0.922,1.207,2.483,1.845,4.682,1.845c2.342,0,4.506-0.988,5.79-1.946v0.669c0,0.553,0.417,0.996,0.937,0.996  s0.937-0.464,0.937-0.996V50.389C89.432,49.857,89.007,49.432,88.475,49.432z M69.552,64.293c-1.017,1.018-2.454,1.578-4.066,1.578  c-1.858,0-3.33-0.596-4.312-1.788c-1.017-1.191-1.578-3.295-1.578-5.573c0-2.77,0.666-4.812,1.928-6.024  c0.631-0.605,1.817-1.229,2.728-1.362c-0.452,0.435-0.619,1.06-0.619,1.564c0,2.157,1.712,3.528,4.481,3.528  c1.091,0,2.328-0.22,3.233-0.452c0.052,0.476,0.133,1.549,0.133,2.746C71.479,60.75,70.813,63.066,69.552,64.293z M51.473,57.521  c-0.851-0.213-1.49-0.426-2.554-0.781c-0.922-0.319-1.525-0.602-1.916-0.992c-0.461-0.462-0.674-1.101-0.674-1.951  c0-0.888,0.319-1.562,0.993-1.987c0.639-0.426,1.597-0.674,2.696-0.674c1.561,0,2.661,0.354,3.335,0.639l0.355,2.59  c0.071,0.283,0.319,0.532,0.639,0.567c0.39,0,0.674-0.284,0.71-0.639l0.106-3.122c0.036-0.39-0.175-0.785-0.567-0.958  c-0.616-0.271-2.2-0.993-4.577-0.993c-3.441,0-5.605,1.774-5.605,4.577c0,1.348,0.425,2.447,1.206,3.264  c0.639,0.675,1.49,1.171,2.767,1.525c0.994,0.284,1.667,0.496,2.519,0.78c2.271,0.745,3.087,1.313,3.087,3.264  c0,1.029-0.284,1.774-0.887,2.271c-0.71,0.567-1.774,0.853-3.229,0.853c-1.916,0-3.264-0.462-4.009-0.781l-0.319-2.59  c-0.036-0.355-0.319-0.638-0.674-0.638c-0.39,0-0.745,0.282-0.745,0.708l-0.142,3.123c0.036,0.425,0.284,0.744,0.709,0.957  c0.746,0.355,2.484,1.136,5.18,1.136c1.916,0,3.406-0.425,4.435-1.277c1.064-0.887,1.596-2.164,1.596-3.761  C55.908,59.188,53.708,58.231,51.473,57.521z M170.38,57.521c-0.853-0.213-1.491-0.426-2.556-0.781  c-0.921-0.319-1.524-0.602-1.915-0.992c-0.461-0.462-0.674-1.101-0.674-1.951c0-0.888,0.319-1.562,0.993-1.987  c0.639-0.426,1.596-0.674,2.696-0.674c1.561,0,2.66,0.354,3.336,0.639l0.354,2.59c0.07,0.283,0.318,0.532,0.638,0.567  c0.391,0,0.675-0.284,0.71-0.639l0.107-3.122c0.034-0.39-0.177-0.785-0.568-0.958c-0.615-0.271-2.2-0.993-4.577-0.993  c-3.441,0-5.605,1.774-5.605,4.577c0,1.348,0.426,2.447,1.206,3.264c0.639,0.675,1.49,1.171,2.767,1.525  c0.994,0.284,1.669,0.496,2.52,0.78c2.271,0.745,3.088,1.313,3.088,3.264c0,1.029-0.284,1.774-0.889,2.271  c-0.709,0.567-1.773,0.853-3.228,0.853c-1.916,0-3.265-0.462-4.009-0.781l-0.32-2.59c-0.034-0.355-0.318-0.638-0.674-0.638  c-0.391,0-0.745,0.282-0.745,0.708l-0.142,3.123c0.035,0.425,0.284,0.744,0.71,0.957c0.744,0.355,2.483,1.136,5.18,1.136  c1.915,0,3.405-0.425,4.435-1.277c1.064-0.887,1.597-2.164,1.597-3.761C174.814,59.188,172.615,58.231,170.38,57.521z   M157.703,49.929c-0.959-0.461-2.059-0.709-3.336-0.709c-1.028,0-1.985,0.177-2.874,0.497c-0.992,0.354-1.845,0.922-2.554,1.631  c-0.78,0.782-1.384,1.774-1.774,2.91c-0.461,1.206-0.673,2.59-0.673,4.15c0,2.768,0.566,4.86,1.701,6.386  c1.385,1.917,3.656,2.874,6.706,2.874c3.158,0,5.287-0.993,5.357-1.028c0.496-0.213,0.709-0.781,0.461-1.207  c-0.213-0.39-0.78-0.532-1.277-0.354c0,0-1.845,0.675-4.541,0.675c-4.471,0-6.492-2.271-6.492-7.345c0-2.554,0.639-4.506,1.88-5.782  c1.278-1.312,2.909-1.597,4.08-1.597c1.845,0,3.192,0.568,4.009,1.809c0.604,0.923,0.923,2.2,1.03,3.762l-8.547,0.186  c-0.496,0-0.851,0.391-0.851,0.887c0,0.461,0.318,0.816,0.851,0.816l9.54-0.009c0.532,0,0.958-0.391,0.958-0.923  c0-2.412-0.498-4.328-1.455-5.711C159.335,50.994,158.59,50.355,157.703,49.929z M145.401,65.537c0,0-0.887,0.283-1.915,0.283  c-0.71,0-1.312-0.319-1.633-0.638c-0.425-0.427-0.391-1.32-0.391-1.995c0-0.07,0-11.841,0-11.841h4.081  c0.532,0,0.958-0.461,0.958-0.958c0-0.531-0.426-0.957-0.958-0.957h-4.081v-3.199c0-0.532-0.425-0.958-0.957-0.958  s-0.958,0.426-0.958,0.958v3.199h-1.632c-0.497,0-0.958,0.426-0.958,0.957c0,0.497,0.461,0.958,0.958,0.958h1.632  c0,0,0,11.104,0,11.841c0,1.325,0.092,2.477,0.958,3.343c0.675,0.674,1.668,1.028,2.98,1.028c1.489,0,2.483-0.39,2.518-0.39  c0.462-0.178,0.711-0.674,0.532-1.136C146.396,65.607,145.863,65.359,145.401,65.537z M128.039,49.436  c-1.489,0.248-2.342,0.567-2.342,0.567c-0.496,0.178-0.744,0.745-0.566,1.242c0.212,0.497,0.744,0.745,1.241,0.566  c0,0,1.023-0.345,1.561-0.425c1.277-0.248,2.697-0.39,3.975-0.107c1.845,0.463,2.233,2.2,2.233,3.902c0,2.697,0,8.797,0,8.797  c-0.992,0.887-2.376,1.562-3.725,1.774c-2.411,0.39-5.003-0.639-5.003-3.301c0-1.719,1.137-2.571,2.583-3.043  c0.971-0.317,2.905-0.597,4.212-0.665c0.371-0.019,0.719-0.387,0.684-0.825c-0.034-0.452-0.418-0.752-0.843-0.752  c-1.159,0-2.675,0.094-4.501,0.614c-1.729,0.492-3.114,1.323-3.73,3.146c-0.744,2.199,0.284,4.719,2.164,5.854  c2.448,1.489,6.138,0.958,8.159-1.064v0.712c0,0.532,0.427,0.958,0.959,0.958s0.958-0.426,0.958-0.958c0,0,0-2.485,0-3.586v-7.802  c0-1.784-0.387-3.08-1.137-4.044C133.551,49.229,130.958,48.941,128.039,49.436z"/>
</svg>