<svg class="svg" viewBox="0 0 102.717 47.035" width="25px" height="25px" preserveAspectRatio="xMidYMid" tabindex="-1">
    <path class="shape" fill="#fff" d="M100.014 6.758c-1.352-2.162-3.244-3.781-5.676-5.134-2.434-1.083-5.947-1.624-10.274-1.624h-21.625l-7.297 47.035h21.895c2.434 0 5.676-.274 8.92-1.352 2.434-.542 4.596-1.627 7.03-3.785 2.161-1.621 4.324-4.055 5.675-7.028 1.621-2.701 2.973-6.757 3.786-11.623.269-3.244.269-6.487.269-9.19-.54-2.704-1.352-5.138-2.703-7.299zm-12.433 16.76c-.541 3.783-1.352 6.485-2.165 8.109-1.08 1.893-2.162 2.703-3.782 3.514-1.083.541-3.515 1.082-6.217 1.082h-3.517l3.517-25.41h3.782c3.514 0 6.217.811 7.568 2.703 1.083 1.625 1.352 5.135.814 10.002z"></path>
    <path class="shape" fill="#fff" d="M37.572,0L35.14,16.491H19.463L21.895,0H7.027L0,47.035h14.866l2.703-18.922h15.677l-2.971,18.922h14.866L52.439,0H37.572z"></path>
</svg>